<?xml version="1.0" encoding="UTF-8"?>
<svg id="Livello_1" data-name="Livello 1" xmlns="http://www.w3.org/2000/svg" viewBox="0 0 140 140">
  <defs>
    <style>
      .cls-1 {
        fill: #f9dc78;
        stroke: #f9dc78;
      }

      .cls-1, .cls-2, .cls-3, .cls-4 {
        font-family: SegoeUI-Semibold, 'Segoe UI';
        font-size: 36.18px;
        font-weight: 600;
        stroke-miterlimit: 10;
      }

      .cls-2 {
        fill: #239938;
        stroke: #00983a;
      }

      .cls-5 {
        fill: #7fcbec;
      }

      .cls-5, .cls-6, .cls-7, .cls-8 {
        opacity: .3;
      }

      .cls-6 {
        fill: #fbedbc;
      }

      .cls-3 {
        fill: #e7a2c8;
        stroke: #e7a2c8;
      }

      .cls-7 {
        fill: #f3d0e3;
      }

      .cls-8 {
        fill: #91c99a;
      }

      .cls-4 {
        fill: #0097da;
        stroke: #0097da;
      }
    </style>
  </defs>
  <path class="cls-7" d="M.46,140h69.23v-22.74c-1.19.02-4.47-.08-7.57-2.33-4.96-3.61-5.06-9.54-5.06-10.11,0-5.97,4.27-9.49,4.98-10.05,3.06-2.44,6.36-2.79,7.64-2.85v-22.27c-7.36,0-14.72,0-22.09,0-.12-1.26-.54-4.01-2.54-6.64-3.75-4.93-9.66-5.02-10.12-5.01-.56,0-6.58.12-10.12,5.11-1.85,2.6-2.15,5.3-2.21,6.54-7.47,0-14.94,0-22.42,0,.09,23.45.17,46.91.26,70.36Z"/>
  <path class="cls-8" d="M139.74,0h-70.05v22.17c1.23,0,4.39.19,7.41,2.38,5.11,3.7,5.21,9.8,5.21,10.27,0,5.18-3.2,8.45-3.75,8.99-3.59,3.56-8.01,3.66-8.88,3.66v22.17c7.51,0,15.02,0,22.53,0,0,1.04.14,4.94,3.11,8.34,3.68,4.23,8.78,4.31,9.51,4.31,5.09,0,8.31-3.1,8.88-3.67,3.65-3.62,3.74-8.14,3.74-8.98,7.51,0,15.02,0,22.53,0-.09-23.21-.17-46.43-.26-69.64Z"/>
  <path class="cls-5" d="M.2.26v69.38h22.42c0-1.09.16-2.62.85-4.25,1.77-4.19,6.35-7.39,11.48-7.4,5.13-.01,9.31,3.17,11.27,6.84.99,1.86,1.29,3.63,1.39,4.81,7.36,0,14.72,0,22.09,0v-22.17c.86,0,5.28-.09,8.88-3.66.54-.53,3.75-3.83,3.75-8.99,0-4.64-2.61-8.81-6.3-10.96-2.55-1.49-5.04-1.68-6.32-1.69V0C46.53.09,23.37.17.2.26Z"/>
  <path class="cls-6" d="M140,139.74v-70.1c-7.51,0-15.02,0-22.53,0,0,6.94-5.7,12.65-12.62,12.65s-12.62-5.71-12.62-12.65c-7.51,0-15.02,0-22.53,0v22.27c-1.28.07-4.58.42-7.64,2.85-.71.56-4.98,4.08-4.98,10.05,0,.57.1,6.5,5.06,10.11,3.1,2.26,6.38,2.35,7.57,2.33l.1,22.74c23.4-.09,46.81-.17,70.21-.26Z"/>
  <text class="cls-4" transform="translate(18.26 48.34)"><tspan x="0" y="0">Μ</tspan></text>
  <text class="cls-2" transform="translate(91.35 48.34)"><tspan x="0" y="0">Π</tspan></text>
  <text class="cls-3" transform="translate(25.1 118.21)"><tspan x="0" y="0">Σ</tspan></text>
  <text class="cls-1" transform="translate(94.95 117.97)"><tspan x="0" y="0">Σ</tspan></text>
</svg>